<svg width="81" height="81" viewBox="0 0 81 81" fill="none" xmlns="http://www.w3.org/2000/svg">
<g id="Reduce Cost of Labour">
<path id="Vector" d="M10.0748 39.9992C10.0748 31.93 13.2803 24.1913 18.9861 18.4855C24.6919 12.7797 32.4306 9.57424 40.4998 9.57424C48.569 9.57424 56.3077 12.7797 62.0135 18.4855C67.7193 24.1913 70.9248 31.93 70.9248 39.9992M29.9248 40.8492C30.4759 39.9178 30.7693 38.8565 30.7748 37.7742C30.7748 36.1697 30.1374 34.6308 29.0028 33.4962C27.8682 32.3616 26.3294 31.7242 24.7248 31.7242C23.1203 31.7242 21.5814 32.3616 20.4468 33.4962C19.3122 34.6308 18.6748 36.1697 18.6748 37.7742C18.6719 38.8385 18.957 39.8838 19.4998 40.7992M15.0748 62.3492V53.3492C15.0748 50.7899 16.0915 48.3354 17.9012 46.5257C19.711 44.7159 22.1655 43.6992 24.7248 43.6992C27.2842 43.6992 29.7387 44.7159 31.5484 46.5257C33.3581 48.3354 34.3748 50.7899 34.3748 53.3492V68.5742M62.0998 40.7992C62.6798 39.8963 62.9919 38.8474 62.9998 37.7742C62.9998 36.1697 62.3624 34.6308 61.2278 33.4962C60.0932 32.3616 58.5544 31.7242 56.9498 31.7242C55.3453 31.7242 53.8064 32.3616 52.6718 33.4962C51.5372 34.6308 50.8998 36.1697 50.8998 37.7742C50.8928 38.8582 51.1871 39.9228 51.7498 40.8492M47.2248 68.5742V53.3492C47.3509 50.8716 48.4239 48.537 50.2221 46.828C52.0204 45.1189 54.4065 44.1659 56.8873 44.1659C59.3682 44.1659 61.7542 45.1189 63.5525 46.828C65.3507 48.537 66.4237 50.8716 66.5498 53.3492V62.3492M30.9748 22.3492L40.4998 31.7492L50.0248 22.2242M40.4998 78.4742C32.9951 78.4742 25.6588 76.2491 19.4185 72.0803C13.1782 67.9114 8.31406 61.9858 5.44098 55.0528C2.5679 48.1198 1.81491 40.4906 3.27719 33.1298C4.73948 25.7689 8.35138 19.0068 13.6563 13.6984C18.9612 8.38997 25.7209 4.77362 33.0808 3.30649C40.4408 1.83935 48.0704 2.58732 55.0053 5.45584C61.9402 8.32435 67.8689 13.1846 72.0419 19.4222C76.2149 25.6597 78.4449 32.9945 78.4498 40.4992C78.4531 45.485 77.4739 50.4226 75.5682 55.0298C73.6625 59.637 70.8677 63.8235 67.3434 67.3501C63.819 70.8767 59.6344 73.6744 55.0284 75.5831C50.4225 77.4918 45.4856 78.4742 40.4998 78.4742Z" stroke="url(#paint0_linear_7742_106185)" stroke-width="2.5" stroke-linecap="round" stroke-linejoin="round"/>
</g>
<defs>
<linearGradient id="paint0_linear_7742_106185" x1="40.4998" y1="79.7242" x2="40.4998" y2="1.32424" gradientUnits="userSpaceOnUse">
<stop stop-color="#64B68E" stop-opacity="0"/>
<stop offset="0.03" stop-color="#64B68E" stop-opacity="0.05"/>
<stop offset="0.09" stop-color="#64B68E" stop-opacity="0.2"/>
<stop offset="0.16" stop-color="#64B68E" stop-opacity="0.44"/>
<stop offset="0.25" stop-color="#64B68E" stop-opacity="0.77"/>
<stop offset="0.3" stop-color="#64B68E"/>
<stop offset="0.31" stop-color="#5FAF90"/>
<stop offset="0.34" stop-color="#4D9495"/>
<stop offset="0.38" stop-color="#3E7E9A"/>
<stop offset="0.42" stop-color="#336D9E"/>
<stop offset="0.47" stop-color="#2B62A0"/>
<stop offset="0.54" stop-color="#265BA2"/>
<stop offset="0.73" stop-color="#2559A2"/>
</linearGradient>
</defs>
</svg>
